<?xml version="1.0" encoding="UTF-8" standalone="no"?>
<!-- Created with Inkscape (http://www.inkscape.org/) -->

<svg
   version="1.1"
   id="svg132"
   width="213.43336"
   height="168.82643"
   viewBox="0 0 213.43337 168.82643"
   sodipodi:docname="example_SQI.svg"
   inkscape:version="1.2.2 (b0a8486, 2022-12-01)"
   xmlns:inkscape="http://www.inkscape.org/namespaces/inkscape"
   xmlns:sodipodi="http://sodipodi.sourceforge.net/DTD/sodipodi-0.dtd"
   xmlns="http://www.w3.org/2000/svg"
   xmlns:svg="http://www.w3.org/2000/svg">
  <defs
     id="defs136">
    <clipPath
       clipPathUnits="userSpaceOnUse"
       id="clipPath1042">
      <path
         d="M 280.32,538.554 H 420.801 V 504.312 H 280.32 Z"
         clip-rule="evenodd"
         id="path1040" />
    </clipPath>
    <clipPath
       clipPathUnits="userSpaceOnUse"
       id="clipPath1052">
      <path
         d="M 280.32,541.734 H 420.801 V 504.312 H 280.32 Z"
         clip-rule="evenodd"
         id="path1050" />
    </clipPath>
    <clipPath
       clipPathUnits="userSpaceOnUse"
       id="clipPath1062">
      <path
         d="M 280.32,544.709 H 420.801 V 504.312 H 280.32 Z"
         clip-rule="evenodd"
         id="path1060" />
    </clipPath>
    <clipPath
       clipPathUnits="userSpaceOnUse"
       id="clipPath1072">
      <path
         d="M 280.32,547.476 H 420.801 V 504.313 H 280.32 Z"
         clip-rule="evenodd"
         id="path1070" />
    </clipPath>
    <clipPath
       clipPathUnits="userSpaceOnUse"
       id="clipPath1082">
      <path
         d="M 280.32,549.996 H 420.801 V 504.312 H 280.32 Z"
         clip-rule="evenodd"
         id="path1080" />
    </clipPath>
    <clipPath
       clipPathUnits="userSpaceOnUse"
       id="clipPath1092">
      <path
         d="M 280.32,552.433 H 420.801 V 531.697 H 280.32 Z"
         clip-rule="evenodd"
         id="path1090" />
    </clipPath>
    <clipPath
       clipPathUnits="userSpaceOnUse"
       id="clipPath1102">
      <path
         d="M 280.32,559.248 H 420.801 V 540.537 H 280.32 Z"
         clip-rule="evenodd"
         id="path1100" />
    </clipPath>
    <clipPath
       clipPathUnits="userSpaceOnUse"
       id="clipPath1112">
      <path
         d="M 280.32,567.551 H 420.801 V 545.907 H 280.32 Z"
         clip-rule="evenodd"
         id="path1110" />
    </clipPath>
    <clipPath
       clipPathUnits="userSpaceOnUse"
       id="clipPath1122">
      <path
         d="M 280.32,574.49 H 420.801 V 549.871 H 280.32 Z"
         clip-rule="evenodd"
         id="path1120" />
    </clipPath>
    <clipPath
       clipPathUnits="userSpaceOnUse"
       id="clipPath1132">
      <path
         d="M 280.32,580.645 H 420.801 V 553.093 H 280.32 Z"
         clip-rule="evenodd"
         id="path1130" />
    </clipPath>
    <clipPath
       clipPathUnits="userSpaceOnUse"
       id="clipPath1142">
      <path
         d="M 280.32,586.262 H 420.801 V 556.48 H 280.32 Z"
         clip-rule="evenodd"
         id="path1140" />
    </clipPath>
    <clipPath
       clipPathUnits="userSpaceOnUse"
       id="clipPath1152">
      <path
         d="M 280.32,591.55 H 420.801 V 561.562 H 280.32 Z"
         clip-rule="evenodd"
         id="path1150" />
    </clipPath>
    <clipPath
       clipPathUnits="userSpaceOnUse"
       id="clipPath1162">
      <path
         d="M 280.32,596.548 H 420.801 V 570.236 H 280.32 Z"
         clip-rule="evenodd"
         id="path1160" />
    </clipPath>
    <clipPath
       clipPathUnits="userSpaceOnUse"
       id="clipPath1172">
      <path
         d="M 280.32,601.38 H 420.801 V 579.819 H 280.32 Z"
         clip-rule="evenodd"
         id="path1170" />
    </clipPath>
    <clipPath
       clipPathUnits="userSpaceOnUse"
       id="clipPath1182">
      <path
         d="M 280.32,606.006 H 420.801 V 587.543 H 280.32 Z"
         clip-rule="evenodd"
         id="path1180" />
    </clipPath>
    <clipPath
       clipPathUnits="userSpaceOnUse"
       id="clipPath1316">
      <path
         d="M 116.914,564.205 H 257.395 V 504.601 H 116.914 Z"
         clip-rule="evenodd"
         id="path1314" />
    </clipPath>
    <clipPath
       clipPathUnits="userSpaceOnUse"
       id="clipPath1326">
      <path
         d="m 116.914,567.881 h 140.481 v -63.28 H 116.914 Z"
         clip-rule="evenodd"
         id="path1324" />
    </clipPath>
    <clipPath
       clipPathUnits="userSpaceOnUse"
       id="clipPath1336">
      <path
         d="M 116.914,571.557 H 257.395 V 504.602 H 116.914 Z"
         clip-rule="evenodd"
         id="path1334" />
    </clipPath>
    <clipPath
       clipPathUnits="userSpaceOnUse"
       id="clipPath1346">
      <path
         d="M 116.914,575.192 H 257.395 V 504.601 H 116.914 Z"
         clip-rule="evenodd"
         id="path1344" />
    </clipPath>
    <clipPath
       clipPathUnits="userSpaceOnUse"
       id="clipPath1356">
      <path
         d="M 116.914,578.868 H 257.395 V 504.601 H 116.914 Z"
         clip-rule="evenodd"
         id="path1354" />
    </clipPath>
    <clipPath
       clipPathUnits="userSpaceOnUse"
       id="clipPath1366">
      <path
         d="M 116.914,582.545 H 257.395 V 504.601 H 116.914 Z"
         clip-rule="evenodd"
         id="path1364" />
    </clipPath>
    <clipPath
       clipPathUnits="userSpaceOnUse"
       id="clipPath1376">
      <path
         d="M 116.914,586.179 H 257.395 V 549.996 H 116.914 Z"
         clip-rule="evenodd"
         id="path1374" />
    </clipPath>
    <clipPath
       clipPathUnits="userSpaceOnUse"
       id="clipPath1386">
      <path
         d="M 116.914,589.855 H 257.395 V 558.299 H 116.914 Z"
         clip-rule="evenodd"
         id="path1384" />
    </clipPath>
    <clipPath
       clipPathUnits="userSpaceOnUse"
       id="clipPath1396">
      <path
         d="M 116.914,593.491 H 257.395 V 565.237 H 116.914 Z"
         clip-rule="evenodd"
         id="path1394" />
    </clipPath>
    <clipPath
       clipPathUnits="userSpaceOnUse"
       id="clipPath1406">
      <path
         d="M 116.914,597.167 H 257.395 V 571.393 H 116.914 Z"
         clip-rule="evenodd"
         id="path1404" />
    </clipPath>
    <clipPath
       clipPathUnits="userSpaceOnUse"
       id="clipPath1416">
      <path
         d="M 116.914,600.842 H 257.395 V 577.008 H 116.914 Z"
         clip-rule="evenodd"
         id="path1414" />
    </clipPath>
    <clipPath
       clipPathUnits="userSpaceOnUse"
       id="clipPath1426">
      <path
         d="M 116.914,604.477 H 257.395 V 582.296 H 116.914 Z"
         clip-rule="evenodd"
         id="path1424" />
    </clipPath>
    <clipPath
       clipPathUnits="userSpaceOnUse"
       id="clipPath1436">
      <path
         d="M 116.914,607.122 H 257.395 V 587.254 H 116.914 Z"
         clip-rule="evenodd"
         id="path1434" />
    </clipPath>
    <clipPath
       clipPathUnits="userSpaceOnUse"
       id="clipPath1446">
      <path
         d="M 116.914,607.122 H 257.395 V 592.045 H 116.914 Z"
         clip-rule="evenodd"
         id="path1444" />
    </clipPath>
    <clipPath
       clipPathUnits="userSpaceOnUse"
       id="clipPath1456">
      <path
         d="M 116.914,607.122 H 257.395 V 596.713 H 116.914 Z"
         clip-rule="evenodd"
         id="path1454" />
    </clipPath>
  </defs>
  <sodipodi:namedview
     id="namedview134"
     pagecolor="#ffffff"
     bordercolor="#666666"
     borderopacity="1.0"
     inkscape:showpageshadow="2"
     inkscape:pageopacity="0.0"
     inkscape:pagecheckerboard="0"
     inkscape:deskcolor="#d1d1d1"
     showgrid="false"
     inkscape:zoom="2.8225072"
     inkscape:cx="62.17876"
     inkscape:cy="92.470976"
     inkscape:window-width="1680"
     inkscape:window-height="1050"
     inkscape:window-x="0"
     inkscape:window-y="0"
     inkscape:window-maximized="0"
     inkscape:current-layer="g138" />
  <g
     id="g138"
     inkscape:groupmode="layer"
     inkscape:label="Clarke and Braginski - 2004 - The SQUID Handbook"
     transform="matrix(1.3333333,0,0,-1.3333333,-136.94519,809.75731)">
    <text
       xml:space="preserve"
       transform="matrix(1,0,0,-1,111.0902,495.7612)"
       style="font-variant:normal;font-weight:normal;font-size:8.3491px;font-family:Helvetica;-inkscape-font-specification:Helvetica;writing-mode:lr-tb;fill:#231f20;fill-opacity:1;fill-rule:nonzero;stroke:none"
       id="text1306"><tspan
         x="0 4.6529536 6.9848571 35.115479 39.768433 42.100338 70.230957 74.883911 77.215813 105.34644 109.99939 112.3313 140.42017 145.07312 147.40503"
         y="0"
         sodipodi:role="line"
         id="tspan1298">0.00.51.01.52.0</tspan><tspan
         x="-8.0986271 -3.4481783 -1.1187794"
         y="-6.4872508"
         sodipodi:role="line"
         id="tspan1300">0.0</tspan><tspan
         x="-8.0986271 -3.4481783 -1.1187794"
         y="-43.081356"
         sodipodi:role="line"
         id="tspan1302">0.5</tspan><tspan
         x="-8.0986271 -3.4481783 -1.1187794"
         y="-79.675461"
         sodipodi:role="line"
         id="tspan1304">1.0</tspan></text>
    <path
       d="m 116.914,504.642 v 2.065 m 17.556,-2.065 v 1.033 m 17.596,-1.033 v 2.065 m 17.513,-2.065 v 1.033 m 17.555,-1.033 v 2.065 m 17.597,-2.065 v 1.033 m 17.554,-1.033 v 2.065 m 17.514,-2.065 v 1.033 m 17.596,-1.033 v 2.065 m -140.481,-2.065 h 140.481 m -140.481,0 h 2.107 m -2.107,18.258 h 1.074 m -1.074,18.297 h 2.107 m -2.107,18.34 h 1.074 m -1.074,18.299 h 2.107 m -2.107,18.299 h 1.074 m -1.074,-91.493 v 102.48 m 0,0 v -2.107 m 17.556,2.107 v -1.074 m 17.596,1.074 v -2.107 m 17.513,2.107 v -1.074 m 17.555,1.074 v -2.107 m 17.597,2.107 v -1.074 m 17.554,1.074 v -2.107 m 17.514,2.107 v -1.074 m 17.596,1.074 v -2.107 m -140.481,2.107 h 140.481 m 0,-102.48 h -2.106 m 2.106,18.258 h -1.074 m 1.074,18.297 h -2.106 m 2.106,18.34 h -1.074 m 1.074,18.299 h -2.106 m 2.106,18.299 h -1.074 m 1.074,-91.493 v 102.48"
       style="fill:none;stroke:#231f20;stroke-width:0.392;stroke-linecap:square;stroke-linejoin:miter;stroke-miterlimit:10;stroke-dasharray:none;stroke-opacity:1"
       id="path1308" />
    <g
       id="g1310">
      <g
         id="g1312"
         clip-path="url(#clipPath1316)">
        <path
           d="m 116.914,504.642 h 16.151 l 0.743,21.231 0.662,5.452 0.702,3.883 0.701,3.058 0.703,2.56 1.405,4.13 0.702,1.735 0.702,1.529 0.702,1.404 0.702,1.28 0.703,1.157 1.404,1.983 0.702,0.826 0.703,0.784 0.743,0.702 0.66,0.621 0.703,0.537 0.702,0.495 0.703,0.372 0.743,0.372 0.661,0.248 0.702,0.247 0.702,0.124 0.703,0.083 0.743,0.041 0.661,-0.041 0.702,-0.083 0.702,-0.124 1.404,-0.495 0.744,-0.33 0.661,-0.414 0.702,-0.495 0.702,-0.537 0.702,-0.621 0.744,-0.702 0.661,-0.784 0.701,-0.826 1.405,-1.983 0.744,-1.157 0.661,-1.28 0.702,-1.363 0.702,-1.57 0.703,-1.735 0.702,-1.941 0.743,-2.189 0.66,-2.56 0.703,-3.058 0.702,-3.883 0.703,-5.452 0.743,-21.231 h 32.259 l 0.744,21.231 0.703,5.452 0.66,3.883 0.702,3.058 0.703,2.56 0.743,2.189 0.702,1.941 0.661,1.735 0.702,1.57 0.702,1.363 0.702,1.28 0.744,1.157 0.702,0.992 0.661,0.991 0.702,0.826 0.703,0.784 0.743,0.702 0.702,0.621 0.662,0.537 0.702,0.495 0.702,0.414 0.743,0.33 0.702,0.248 0.661,0.247 0.702,0.124 0.703,0.083 0.743,0.041 0.703,-0.041 0.702,-0.083 0.661,-0.124 1.404,-0.495 0.744,-0.33 0.701,-0.414 0.662,-0.495 0.702,-0.537 0.702,-0.621 0.743,-0.702 0.702,-0.784 0.661,-0.826 1.405,-1.983 0.743,-1.157 0.702,-1.28 0.703,-1.363 0.661,-1.57 0.702,-1.735 0.702,-1.941 0.743,-2.189 0.703,-2.56 0.661,-3.058 0.702,-3.883 0.703,-5.452 0.742,-13.011 0.703,-8.22 h 15.448"
           style="fill:none;stroke:#231f20;stroke-width:0.543;stroke-linecap:square;stroke-linejoin:miter;stroke-miterlimit:10;stroke-dasharray:none;stroke-opacity:1"
           id="path1318" />
      </g>
    </g>
    <g
       id="g1320">
      <g
         id="g1322"
         clip-path="url(#clipPath1326)">
        <path
           d="m 116.914,504.642 h 14.045 l 0.702,20.983 0.702,6.031 0.702,4.089 0.743,3.181 0.662,2.684 0.702,2.273 0.701,2.023 0.703,1.818 0.744,1.652 0.661,1.487 0.702,1.364 0.702,1.28 0.702,1.115 0.702,1.074 0.703,0.95 0.702,0.909 1.404,1.57 0.703,0.661 0.743,0.577 0.66,0.536 0.703,0.497 0.702,0.413 0.703,0.373 0.743,0.288 0.661,0.248 0.702,0.206 0.702,0.124 0.703,0.125 h 1.404 l 0.702,-0.125 0.702,-0.124 0.702,-0.206 0.702,-0.248 0.744,-0.288 0.661,-0.373 0.702,-0.413 0.702,-0.497 0.702,-0.536 0.744,-0.577 0.661,-0.703 0.701,-0.744 0.703,-0.784 0.702,-0.909 0.744,-0.95 0.661,-1.074 0.702,-1.115 0.702,-1.28 0.703,-1.364 0.702,-1.487 0.743,-1.652 0.66,-1.818 0.703,-2.023 0.702,-2.273 0.703,-2.684 0.743,-3.181 0.661,-4.089 0.702,-6.031 0.702,-20.983 h 28.13 l 0.66,20.983 0.702,6.031 0.702,4.089 0.744,3.181 0.703,2.684 0.66,2.273 0.702,2.023 0.703,1.818 0.743,1.652 0.702,1.487 0.661,1.364 0.702,1.28 0.702,1.115 0.702,1.074 0.744,0.95 0.702,0.909 0.661,0.784 0.702,0.786 0.703,0.661 0.743,0.577 0.702,0.536 0.662,0.497 0.702,0.413 0.702,0.373 0.743,0.288 0.702,0.248 0.661,0.206 0.702,0.124 0.703,0.125 h 1.446 l 0.702,-0.125 0.661,-0.124 0.701,-0.206 0.703,-0.248 0.744,-0.288 0.701,-0.373 0.662,-0.413 0.702,-0.497 0.702,-0.536 0.743,-0.577 0.702,-0.661 0.661,-0.786 0.702,-0.784 0.703,-0.909 0.743,-0.95 0.702,-1.074 0.703,-1.115 0.661,-1.28 0.702,-1.364 0.702,-1.487 0.743,-1.652 0.703,-1.818 0.661,-2.023 0.702,-2.273 0.703,-2.684 0.742,-3.181 0.703,-4.089 0.661,-6.031 0.702,-20.983 h 14.085"
           style="fill:none;stroke:#231f20;stroke-width:0.543;stroke-linecap:square;stroke-linejoin:miter;stroke-miterlimit:10;stroke-dasharray:none;stroke-opacity:1"
           id="path1328" />
      </g>
    </g>
    <g
       id="g1330">
      <g
         id="g1332"
         clip-path="url(#clipPath1336)">
        <path
           d="m 116.914,504.642 h 11.938 l 0.702,24.164 0.702,5.122 0.703,3.676 0.702,3.015 0.702,2.562 0.702,2.189 0.743,2.024 0.662,1.776 0.702,1.651 0.701,1.53 0.703,1.404 0.744,1.322 0.661,1.156 0.702,1.157 0.702,1.033 0.702,0.949 0.702,0.909 0.703,0.826 1.404,1.487 1.405,1.239 0.743,0.496 0.66,0.495 0.703,0.413 1.405,0.744 0.743,0.248 0.661,0.206 0.702,0.207 0.702,0.125 0.703,0.041 0.743,0.041 0.661,-0.041 0.702,-0.041 0.702,-0.125 1.404,-0.413 0.744,-0.248 0.661,-0.372 0.702,-0.372 0.702,-0.413 0.702,-0.495 0.744,-0.496 0.661,-0.619 0.701,-0.62 1.405,-1.487 0.744,-0.868 0.661,-0.867 0.702,-0.949 0.702,-1.075 0.703,-1.115 0.702,-1.198 0.743,-1.28 0.66,-1.404 0.703,-1.53 0.702,-1.651 0.703,-1.776 0.743,-1.983 0.661,-2.23 0.702,-2.562 0.702,-2.974 0.703,-3.717 0.743,-5.122 0.661,-24.164 h 23.875 l 0.701,24.164 0.745,5.122 0.702,3.676 0.66,3.015 0.702,2.52 0.702,2.231 0.744,1.982 0.703,1.818 0.66,1.651 0.702,1.53 0.703,1.404 0.743,1.28 0.702,1.198 0.661,1.157 0.702,1.033 0.702,0.949 0.702,0.909 0.744,0.826 0.702,0.743 0.661,0.744 1.405,1.239 0.743,0.496 0.702,0.495 0.662,0.413 1.404,0.744 0.743,0.248 0.702,0.206 0.661,0.207 0.702,0.125 0.703,0.041 0.743,0.041 1.405,-0.082 0.661,-0.125 1.404,-0.413 0.744,-0.248 0.701,-0.372 0.662,-0.372 0.702,-0.413 0.702,-0.495 0.743,-0.496 0.702,-0.619 0.661,-0.62 1.405,-1.487 0.743,-0.826 0.702,-0.909 0.703,-0.949 0.661,-1.075 0.702,-1.115 0.702,-1.156 0.743,-1.322 0.703,-1.404 0.661,-1.53 0.702,-1.651 0.703,-1.776 0.742,-1.983 0.703,-2.272 0.661,-2.52 0.702,-2.974 0.702,-3.717 0.743,-5.122 0.703,-24.164 h 11.937"
           style="fill:none;stroke:#231f20;stroke-width:0.543;stroke-linecap:square;stroke-linejoin:miter;stroke-miterlimit:10;stroke-dasharray:none;stroke-opacity:1"
           id="path1338" />
      </g>
    </g>
    <g
       id="g1340">
      <g
         id="g1342"
         clip-path="url(#clipPath1346)">
        <path
           d="m 116.914,504.642 h 9.831 l 0.703,30.278 0.702,3.427 0.702,2.809 0.702,2.437 0.702,2.189 0.703,1.942 0.702,1.817 0.702,1.693 0.702,1.571 0.743,1.445 0.662,1.363 0.702,1.28 0.701,1.199 0.703,1.156 0.744,1.033 0.661,0.991 0.702,0.951 1.404,1.734 0.702,0.744 0.703,0.702 1.404,1.322 0.702,0.578 0.703,0.496 0.743,0.454 0.66,0.454 0.703,0.372 0.702,0.33 0.703,0.289 0.743,0.248 0.661,0.166 0.702,0.206 0.702,0.082 0.703,0.042 0.743,0.041 0.661,-0.041 0.702,-0.042 0.702,-0.082 0.702,-0.206 0.702,-0.166 0.744,-0.248 0.661,-0.289 0.702,-0.33 0.702,-0.372 0.702,-0.454 0.744,-0.454 0.661,-0.496 0.701,-0.578 1.405,-1.322 0.744,-0.702 0.661,-0.744 1.404,-1.734 0.703,-0.951 0.702,-0.991 0.743,-1.033 0.66,-1.156 0.703,-1.199 0.702,-1.28 0.703,-1.363 0.743,-1.445 0.661,-1.571 0.702,-1.693 0.702,-1.775 0.703,-1.984 0.743,-2.189 0.661,-2.437 0.702,-2.809 0.703,-3.427 0.701,-4.503 0.744,-25.775 h 18.216 l 0.743,25.775 0.661,4.503 0.703,3.427 0.702,2.809 0.701,2.437 0.745,2.189 0.702,1.942 0.66,1.817 0.702,1.693 0.702,1.571 0.744,1.445 1.363,2.643 0.702,1.199 0.703,1.156 0.743,1.033 0.702,0.991 0.661,0.951 1.404,1.734 0.702,0.744 0.744,0.702 0.702,0.66 0.661,0.662 0.702,0.578 0.703,0.496 0.743,0.454 0.702,0.454 0.662,0.372 0.702,0.33 0.702,0.289 0.743,0.248 0.702,0.207 0.661,0.165 0.702,0.082 0.703,0.042 0.743,0.041 0.703,-0.041 0.702,-0.042 0.661,-0.082 0.701,-0.165 0.703,-0.207 0.744,-0.248 0.701,-0.289 0.662,-0.33 0.702,-0.372 0.702,-0.454 0.743,-0.454 0.702,-0.496 0.661,-0.578 1.405,-1.322 0.743,-0.702 0.702,-0.744 0.703,-0.868 0.661,-0.866 0.702,-0.951 0.702,-0.991 0.743,-1.033 0.703,-1.156 0.661,-1.199 0.702,-1.28 0.703,-1.363 0.742,-1.445 0.703,-1.571 0.661,-1.693 0.702,-1.817 0.702,-1.942 0.743,-2.189 0.703,-2.437 0.702,-2.809 0.661,-3.427 0.702,-4.503 0.744,-25.775 h 9.128"
           style="fill:none;stroke:#231f20;stroke-width:0.543;stroke-linecap:square;stroke-linejoin:miter;stroke-miterlimit:10;stroke-dasharray:none;stroke-opacity:1"
           id="path1348" />
      </g>
    </g>
    <g
       id="g1350">
      <g
         id="g1352"
         clip-path="url(#clipPath1356)">
        <path
           d="m 116.914,504.642 h 7.022 l 0.703,35.317 0.702,2.147 0.703,1.983 0.701,1.899 0.703,1.819 0.702,1.651 0.702,1.57 0.702,1.529 0.702,1.446 0.703,1.363 0.702,1.322 0.702,1.239 0.702,1.198 0.743,1.114 0.662,1.115 0.702,1.033 0.701,0.992 0.703,0.95 0.744,0.867 0.661,0.867 1.404,1.57 0.702,0.702 1.405,1.322 0.702,0.578 0.702,0.537 0.702,0.496 0.703,0.455 0.743,0.413 0.66,0.413 0.703,0.33 1.405,0.578 0.743,0.207 0.661,0.165 0.702,0.165 0.702,0.082 0.703,0.083 h 1.404 l 0.702,-0.083 0.702,-0.082 0.702,-0.165 0.702,-0.165 0.744,-0.207 0.661,-0.288 0.702,-0.29 0.702,-0.33 0.702,-0.413 0.744,-0.413 0.661,-0.455 0.701,-0.496 0.703,-0.537 0.702,-0.578 0.744,-0.661 1.363,-1.363 1.405,-1.57 0.702,-0.867 0.743,-0.867 0.66,-0.95 0.703,-0.992 0.702,-1.033 0.703,-1.115 0.743,-1.114 0.661,-1.198 1.404,-2.561 0.703,-1.405 0.743,-1.404 0.661,-1.529 0.702,-1.57 0.703,-1.651 0.701,-1.819 0.744,-1.858 0.703,-2.024 0.66,-2.147 0.703,-2.438 0.701,-2.726 0.703,-30.153 h 11.276 l 0.703,30.195 0.66,2.684 0.702,2.438 0.703,2.147 0.702,2.024 0.743,1.858 0.661,1.819 0.703,1.651 0.702,1.57 0.701,1.529 0.745,1.404 1.362,2.727 0.702,1.239 0.702,1.198 0.744,1.114 0.703,1.115 0.66,1.033 0.702,0.992 0.703,0.95 0.743,0.867 0.702,0.867 0.661,0.786 0.702,0.784 0.702,0.702 0.702,0.661 0.744,0.661 0.702,0.578 0.661,0.537 0.702,0.496 0.703,0.455 0.743,0.413 0.702,0.413 0.662,0.33 1.404,0.578 0.743,0.207 0.702,0.165 0.661,0.165 0.702,0.082 0.703,0.083 h 1.446 l 0.702,-0.083 0.661,-0.082 0.701,-0.165 0.703,-0.165 0.744,-0.207 0.701,-0.288 0.662,-0.29 0.702,-0.33 0.702,-0.413 0.743,-0.413 0.702,-0.455 0.661,-0.496 0.702,-0.537 0.703,-0.578 0.743,-0.661 0.702,-0.661 0.703,-0.702 0.661,-0.784 0.702,-0.786 0.702,-0.867 0.743,-0.867 0.703,-0.95 0.661,-0.992 0.702,-1.033 0.703,-1.115 0.742,-1.114 0.703,-1.198 0.661,-1.281 0.702,-1.28 0.702,-1.405 0.743,-1.404 0.703,-1.529 0.702,-1.57 0.661,-1.651 0.702,-1.819 0.744,-1.899 0.702,-1.983 0.702,-2.147 0.661,-2.438 0.702,-2.726 0.702,-3.181 0.744,-4.337 0.702,-22.635 h 4.213"
           style="fill:none;stroke:#231f20;stroke-width:0.543;stroke-linecap:square;stroke-linejoin:miter;stroke-miterlimit:10;stroke-dasharray:none;stroke-opacity:1"
           id="path1358" />
      </g>
    </g>
    <g
       id="g1360">
      <g
         id="g1362"
         clip-path="url(#clipPath1366)">
        <path
           d="m 116.914,504.642 0.703,38.621 0.702,0.289 0.702,0.455 0.703,0.66 0.702,0.744 0.702,0.867 0.702,0.992 0.743,1.032 0.661,1.116 0.702,1.115 1.405,2.313 0.703,1.198 2.106,3.47 0.702,1.115 0.702,1.073 0.702,1.116 0.703,1.032 2.106,2.974 0.743,0.91 0.662,0.908 0.702,0.909 0.701,0.784 0.703,0.827 0.744,0.743 0.661,0.743 0.702,0.703 0.702,0.661 1.404,1.239 0.703,0.537 1.404,0.991 0.702,0.455 0.703,0.412 1.403,0.703 0.703,0.33 0.702,0.29 0.703,0.206 0.743,0.207 0.661,0.123 1.404,0.249 0.703,0.041 0.743,0.041 0.661,-0.041 0.702,-0.041 2.106,-0.372 0.744,-0.207 0.661,-0.206 0.702,-0.29 1.404,-0.661 0.744,-0.372 0.661,-0.412 0.701,-0.455 1.405,-0.991 0.744,-0.537 0.661,-0.62 0.702,-0.619 0.702,-0.661 0.703,-0.703 0.702,-0.743 0.743,-0.743 0.66,-0.827 0.703,-0.784 1.405,-1.817 0.743,-0.91 0.661,-0.991 0.702,-0.949 1.405,-2.066 0.743,-1.116 0.661,-1.073 0.702,-1.157 0.703,-1.116 0.701,-1.156 0.744,-1.156 0.703,-1.198 0.66,-1.157 0.703,-1.156 1.404,-2.231 0.743,-1.032 0.661,-0.951 0.702,-0.908 0.703,-0.744 0.702,-0.66 0.743,-0.455 0.661,-0.289 0.702,-0.082 0.702,0.082 0.703,0.289 0.743,0.455 0.702,0.66 0.661,0.744 0.702,0.867 0.703,0.992 0.743,1.032 0.703,1.116 0.66,1.115 1.405,2.313 0.702,1.198 0.743,1.156 0.661,1.115 1.405,2.314 0.701,1.073 0.745,1.116 0.702,1.032 0.66,1.034 0.702,0.99 0.702,0.95 0.744,0.91 0.703,0.908 0.66,0.909 0.702,0.784 0.703,0.827 0.743,0.743 0.702,0.743 0.661,0.703 0.702,0.661 1.404,1.239 0.744,0.537 0.702,0.495 0.661,0.496 0.702,0.455 0.703,0.412 0.743,0.372 0.702,0.331 0.662,0.33 0.702,0.29 0.702,0.206 0.743,0.207 0.702,0.123 0.661,0.124 0.702,0.125 0.703,0.041 0.743,0.041 1.405,-0.082 0.661,-0.125 1.404,-0.247 0.744,-0.207 0.701,-0.206 0.662,-0.29 1.404,-0.661 0.743,-0.372 0.702,-0.412 0.661,-0.455 1.405,-0.991 0.743,-0.537 1.405,-1.239 1.363,-1.364 0.702,-0.743 0.743,-0.743 0.703,-0.827 0.661,-0.784 1.405,-1.817 0.742,-0.91 0.703,-0.95 0.661,-0.99 1.404,-2.066 0.743,-1.116 0.703,-1.073 0.702,-1.157 0.661,-1.116 0.702,-1.156 0.744,-1.156 0.702,-1.198 0.702,-1.157 0.661,-1.156 1.404,-2.231 0.744,-1.032 0.702,-0.951 0.66,-0.908 0.703,-0.744 0.702,-0.66 0.743,-0.455 0.703,-0.289 0.702,-0.124"
           style="fill:none;stroke:#231f20;stroke-width:0.543;stroke-linecap:square;stroke-linejoin:miter;stroke-miterlimit:10;stroke-dasharray:none;stroke-opacity:1"
           id="path1368" />
      </g>
    </g>
    <g
       id="g1370">
      <g
         id="g1372"
         clip-path="url(#clipPath1376)">
        <path
           d="m 116.914,554.746 0.703,0.082 0.702,0.124 0.702,0.29 0.703,0.33 0.702,0.413 0.702,0.536 0.702,0.579 0.743,0.662 0.661,0.702 0.702,0.743 0.703,0.784 2.106,2.479 0.703,0.909 0.702,0.826 0.702,0.867 0.702,0.909 1.405,1.652 0.702,0.868 0.702,0.826 0.702,0.785 0.743,0.784 0.662,0.786 0.702,0.702 0.701,0.743 0.703,0.702 0.744,0.62 0.661,0.66 0.702,0.62 0.702,0.537 0.702,0.579 1.405,0.991 1.404,0.909 0.702,0.413 0.703,0.371 0.743,0.331 0.66,0.288 0.703,0.29 0.702,0.247 0.703,0.207 0.743,0.165 0.661,0.165 0.702,0.083 0.702,0.124 h 0.703 l 0.743,0.042 0.661,-0.042 h 0.702 l 0.702,-0.124 0.702,-0.083 0.702,-0.165 0.744,-0.165 0.661,-0.207 0.702,-0.247 1.404,-0.578 0.744,-0.331 0.661,-0.371 0.701,-0.413 1.405,-0.909 0.744,-0.454 0.661,-0.537 0.702,-0.579 0.702,-0.537 1.405,-1.239 0.743,-0.661 0.66,-0.702 0.703,-0.743 0.702,-0.702 0.703,-0.786 0.743,-0.784 0.661,-0.785 0.702,-0.826 0.702,-0.868 0.703,-0.825 0.743,-0.827 0.661,-0.909 0.702,-0.867 0.703,-0.826 0.701,-0.909 0.744,-0.826 0.703,-0.826 0.66,-0.827 0.703,-0.784 0.701,-0.743 0.703,-0.702 0.743,-0.662 0.661,-0.579 0.702,-0.495 0.703,-0.454 0.702,-0.372 0.743,-0.248 0.661,-0.124 0.702,-0.082 0.702,0.082 0.703,0.124 0.743,0.248 0.702,0.372 0.661,0.454 0.702,0.495 0.703,0.579 0.743,0.662 0.703,0.702 0.66,0.743 0.702,0.784 1.405,1.653 0.743,0.826 0.661,0.909 0.703,0.826 0.702,0.867 0.701,0.909 0.745,0.827 0.702,0.825 0.66,0.868 0.702,0.826 0.702,0.785 0.744,0.784 0.703,0.786 0.66,0.702 0.702,0.743 0.703,0.661 0.743,0.661 0.702,0.66 0.661,0.62 0.702,0.537 0.702,0.579 0.702,0.537 0.744,0.454 0.702,0.454 0.661,0.455 0.702,0.413 0.703,0.371 0.743,0.331 0.702,0.288 0.662,0.29 0.702,0.247 0.702,0.207 0.743,0.165 0.702,0.165 0.661,0.083 0.702,0.124 h 0.703 l 0.743,0.042 0.703,-0.042 h 0.702 l 0.661,-0.124 0.701,-0.083 0.703,-0.165 0.744,-0.165 0.701,-0.207 0.662,-0.247 1.404,-0.578 0.743,-0.331 0.702,-0.371 0.661,-0.413 1.405,-0.909 0.743,-0.496 0.702,-0.495 0.703,-0.579 0.661,-0.537 0.702,-0.62 0.702,-0.66 0.743,-0.62 0.703,-0.702 0.661,-0.743 0.702,-0.702 0.703,-0.786 0.742,-0.784 0.703,-0.785 0.661,-0.826 0.702,-0.868 0.702,-0.825 0.743,-0.827 0.703,-0.909 0.702,-0.825 0.661,-0.868 0.702,-0.909 0.744,-0.826 1.404,-1.653 0.661,-0.784 0.702,-0.743 0.702,-0.702 0.744,-0.662 0.702,-0.579 0.66,-0.536 0.703,-0.413 0.702,-0.33 0.743,-0.29 0.703,-0.124 0.702,-0.041"
           style="fill:none;stroke:#231f20;stroke-width:0.543;stroke-linecap:square;stroke-linejoin:miter;stroke-miterlimit:10;stroke-dasharray:none;stroke-opacity:1"
           id="path1378" />
      </g>
    </g>
    <g
       id="g1380">
      <g
         id="g1382"
         clip-path="url(#clipPath1386)">
        <path
           d="m 116.914,563.048 1.405,0.166 0.702,0.165 0.703,0.247 0.702,0.331 0.702,0.372 0.702,0.413 0.743,0.454 0.661,0.538 1.405,1.156 0.702,0.619 1.404,1.322 1.405,1.404 0.702,0.661 0.702,0.745 1.405,1.403 0.702,0.661 1.404,1.404 0.743,0.661 0.662,0.662 2.106,1.858 0.744,0.578 0.661,0.537 0.702,0.579 1.404,0.991 1.405,0.909 0.702,0.413 0.702,0.372 1.405,0.661 0.743,0.33 0.66,0.289 0.703,0.248 1.405,0.412 0.743,0.166 0.661,0.124 0.702,0.124 0.702,0.041 0.703,0.082 h 1.404 l 0.702,-0.082 0.702,-0.041 1.404,-0.248 0.744,-0.166 0.661,-0.205 0.702,-0.207 0.702,-0.248 0.702,-0.289 0.744,-0.33 0.661,-0.331 0.701,-0.33 0.703,-0.372 0.702,-0.413 0.744,-0.455 0.661,-0.454 1.404,-0.991 0.703,-0.579 0.702,-0.537 0.743,-0.578 0.66,-0.619 1.405,-1.239 0.703,-0.662 0.743,-0.661 0.661,-0.702 0.702,-0.702 0.702,-0.661 0.703,-0.702 0.743,-0.701 0.661,-0.745 0.702,-0.661 1.404,-1.404 0.744,-0.661 0.703,-0.661 0.66,-0.619 1.404,-1.156 0.703,-0.538 0.743,-0.454 0.661,-0.413 0.702,-0.372 0.703,-0.331 0.702,-0.247 0.743,-0.165 0.661,-0.083 0.702,-0.083 1.405,0.166 0.743,0.165 0.702,0.247 0.661,0.331 0.702,0.33 0.703,0.455 0.743,0.454 0.703,0.538 0.66,0.577 0.702,0.579 0.703,0.661 0.702,0.619 0.743,0.661 0.661,0.702 0.703,0.702 0.702,0.661 0.701,0.745 0.745,0.701 2.766,2.767 0.744,0.661 0.703,0.662 0.66,0.619 1.405,1.239 0.743,0.578 0.702,0.537 0.661,0.579 1.404,0.991 0.702,0.454 0.744,0.455 0.702,0.413 0.661,0.372 1.405,0.661 0.743,0.33 0.702,0.289 0.662,0.248 1.404,0.412 0.743,0.166 0.702,0.124 0.661,0.124 0.702,0.041 0.703,0.082 h 1.446 l 0.702,-0.082 0.661,-0.041 1.404,-0.248 0.744,-0.166 0.701,-0.205 0.662,-0.207 0.702,-0.248 0.702,-0.289 0.743,-0.33 0.702,-0.331 0.661,-0.33 0.702,-0.372 0.703,-0.413 0.743,-0.455 0.702,-0.454 0.703,-0.496 0.661,-0.495 0.702,-0.579 0.702,-0.537 0.743,-0.578 0.703,-0.619 0.661,-0.62 0.702,-0.619 0.703,-0.662 0.742,-0.661 0.703,-0.702 0.661,-0.702 0.702,-0.661 0.702,-0.702 0.743,-0.701 0.703,-0.745 0.702,-0.661 0.661,-0.702 0.702,-0.702 0.744,-0.661 0.702,-0.619 0.702,-0.661 0.661,-0.579 0.702,-0.577 0.702,-0.538 0.744,-0.454 0.702,-0.413 0.66,-0.372 0.703,-0.331 0.702,-0.247 0.743,-0.165 0.703,-0.083 0.702,-0.042"
           style="fill:none;stroke:#231f20;stroke-width:0.543;stroke-linecap:square;stroke-linejoin:miter;stroke-miterlimit:10;stroke-dasharray:none;stroke-opacity:1"
           id="path1388" />
      </g>
    </g>
    <g
       id="g1390">
      <g
         id="g1392"
         clip-path="url(#clipPath1396)">
        <path
           d="m 116.914,569.988 0.703,0.041 0.702,0.083 0.702,0.123 0.703,0.207 1.404,0.495 0.702,0.331 0.743,0.414 0.661,0.412 0.702,0.414 1.405,0.991 1.404,1.074 2.809,2.313 0.702,0.619 0.703,0.579 0.702,0.619 1.404,1.157 0.743,0.578 0.662,0.578 1.403,1.074 0.703,0.579 0.744,0.496 0.661,0.495 2.808,1.817 1.405,0.744 1.404,0.661 0.703,0.289 0.743,0.289 0.66,0.248 0.703,0.248 0.702,0.206 0.703,0.125 0.743,0.165 0.661,0.123 0.702,0.083 0.702,0.082 0.703,0.042 h 1.404 l 0.702,-0.042 0.702,-0.082 0.702,-0.083 0.702,-0.123 0.744,-0.165 0.661,-0.125 0.702,-0.206 1.404,-0.496 0.744,-0.289 0.661,-0.289 1.404,-0.661 0.702,-0.373 0.744,-0.412 0.661,-0.413 2.107,-1.363 0.702,-0.495 0.743,-0.496 0.66,-0.579 1.405,-1.074 0.703,-0.578 0.743,-0.578 0.661,-0.578 0.702,-0.579 0.702,-0.619 0.703,-0.579 0.743,-0.619 0.661,-0.579 2.106,-1.734 0.744,-0.537 0.703,-0.537 0.66,-0.496 0.703,-0.495 0.701,-0.454 0.703,-0.372 0.743,-0.414 0.661,-0.331 1.405,-0.495 0.702,-0.207 0.743,-0.123 0.661,-0.083 0.702,-0.041 h 0.702 l 0.703,0.124 0.743,0.123 0.702,0.207 0.661,0.248 0.702,0.247 0.703,0.372 0.743,0.373 0.703,0.412 0.66,0.414 1.405,0.991 0.702,0.537 0.743,0.537 0.661,0.577 2.106,1.736 0.745,0.619 0.702,0.579 0.66,0.619 1.404,1.157 0.744,0.578 0.703,0.578 0.66,0.538 0.702,0.536 0.703,0.579 0.743,0.496 0.702,0.495 0.661,0.454 1.404,0.909 0.702,0.413 0.744,0.412 0.702,0.373 0.661,0.331 0.702,0.33 0.703,0.289 0.743,0.289 0.702,0.248 0.662,0.248 0.702,0.206 0.702,0.125 0.743,0.165 0.702,0.123 0.661,0.083 0.702,0.082 0.703,0.042 h 1.446 l 0.702,-0.042 0.661,-0.082 0.701,-0.083 0.703,-0.123 0.744,-0.165 0.701,-0.125 0.662,-0.206 1.404,-0.496 0.743,-0.289 0.702,-0.289 0.661,-0.33 0.702,-0.331 0.703,-0.373 0.743,-0.412 0.702,-0.413 0.703,-0.455 0.661,-0.454 0.702,-0.454 0.702,-0.495 0.743,-0.496 0.703,-0.579 0.661,-0.536 0.702,-0.538 0.703,-0.578 0.742,-0.578 0.703,-0.578 0.661,-0.579 0.702,-0.619 0.702,-0.579 0.743,-0.619 1.405,-1.157 0.661,-0.579 0.702,-0.577 0.744,-0.537 0.702,-0.537 0.702,-0.496 0.661,-0.495 0.702,-0.454 0.702,-0.372 0.744,-0.414 0.702,-0.331 0.66,-0.247 0.703,-0.248 0.702,-0.207 0.743,-0.123 0.703,-0.083 0.702,-0.041"
           style="fill:none;stroke:#231f20;stroke-width:0.543;stroke-linecap:square;stroke-linejoin:miter;stroke-miterlimit:10;stroke-dasharray:none;stroke-opacity:1"
           id="path1398" />
      </g>
    </g>
    <g
       id="g1400">
      <g
         id="g1402"
         clip-path="url(#clipPath1406)">
        <path
           d="m 116.914,576.141 0.703,0.042 0.702,0.042 0.702,0.082 0.703,0.166 0.702,0.206 1.404,0.496 0.743,0.33 0.661,0.331 0.702,0.33 1.405,0.826 1.404,0.908 2.809,1.984 0.702,0.536 0.703,0.497 0.702,0.536 1.404,0.991 0.743,0.537 0.662,0.496 1.403,0.992 0.703,0.455 0.744,0.454 0.661,0.454 2.106,1.239 0.702,0.33 0.703,0.372 0.702,0.33 0.702,0.289 0.702,0.331 0.703,0.248 0.743,0.289 0.66,0.207 1.405,0.413 0.703,0.124 0.743,0.124 0.661,0.123 0.702,0.084 0.702,0.082 h 0.703 l 0.743,0.041 0.661,-0.041 h 0.702 l 0.702,-0.082 0.702,-0.084 0.702,-0.123 0.744,-0.124 0.661,-0.124 1.404,-0.413 0.702,-0.248 0.744,-0.248 0.661,-0.248 0.701,-0.331 0.703,-0.289 0.702,-0.33 1.405,-0.702 2.107,-1.239 0.702,-0.454 0.743,-0.454 0.66,-0.455 2.108,-1.488 0.743,-0.537 0.661,-0.495 0.702,-0.496 0.702,-0.536 0.703,-0.497 0.743,-0.536 0.661,-0.497 2.106,-1.487 0.744,-0.453 0.703,-0.455 0.66,-0.413 0.703,-0.413 1.404,-0.661 0.743,-0.33 0.661,-0.248 0.702,-0.248 0.703,-0.166 0.702,-0.206 0.743,-0.082 0.661,-0.042 0.702,-0.042 0.702,0.042 0.703,0.042 0.743,0.082 0.702,0.206 0.661,0.166 1.405,0.496 0.743,0.33 0.703,0.331 0.66,0.33 1.405,0.826 0.702,0.455 0.743,0.453 0.661,0.497 2.106,1.487 0.745,0.536 0.702,0.497 0.66,0.536 1.404,0.991 0.744,0.537 0.703,0.496 0.66,0.495 0.702,0.497 0.703,0.455 0.743,0.454 0.702,0.454 0.661,0.413 1.404,0.826 0.702,0.33 0.744,0.372 0.702,0.33 0.661,0.289 0.702,0.331 0.703,0.248 0.743,0.248 0.702,0.248 0.662,0.207 0.702,0.206 0.702,0.124 0.743,0.124 0.702,0.123 0.661,0.084 0.702,0.082 h 0.703 l 0.743,0.041 0.703,-0.041 h 0.702 l 0.661,-0.082 0.701,-0.084 0.703,-0.123 0.744,-0.124 0.701,-0.124 0.662,-0.206 0.702,-0.207 0.702,-0.248 0.743,-0.248 0.702,-0.248 0.661,-0.331 0.702,-0.289 0.703,-0.33 0.743,-0.372 0.702,-0.33 0.703,-0.413 0.661,-0.413 0.702,-0.413 0.702,-0.454 0.743,-0.454 0.703,-0.455 0.661,-0.497 1.405,-0.991 0.742,-0.537 0.703,-0.495 0.661,-0.496 0.702,-0.536 0.702,-0.497 0.743,-0.536 1.405,-0.992 0.661,-0.495 0.702,-0.497 0.744,-0.453 0.702,-0.455 0.702,-0.413 0.661,-0.413 1.404,-0.661 0.744,-0.33 0.702,-0.248 0.66,-0.248 0.703,-0.166 0.702,-0.206 0.743,-0.082 0.703,-0.042 0.702,-0.042"
           style="fill:none;stroke:#231f20;stroke-width:0.543;stroke-linecap:square;stroke-linejoin:miter;stroke-miterlimit:10;stroke-dasharray:none;stroke-opacity:1"
           id="path1408" />
      </g>
    </g>
    <g
       id="g1410">
      <g
         id="g1412"
         clip-path="url(#clipPath1416)">
        <path
           d="m 116.914,581.76 h 0.703 l 1.404,0.165 0.703,0.124 0.702,0.166 1.404,0.412 0.743,0.248 0.661,0.29 1.405,0.66 2.106,1.115 0.703,0.413 0.702,0.454 0.702,0.414 4.213,2.726 0.743,0.454 0.662,0.413 0.702,0.454 1.404,0.826 0.744,0.415 0.661,0.412 1.404,0.744 0.702,0.33 0.702,0.372 0.703,0.289 0.702,0.33 1.404,0.578 0.703,0.207 0.743,0.248 0.66,0.206 2.108,0.496 0.743,0.125 0.661,0.081 0.702,0.083 0.702,0.042 0.703,0.042 0.743,0.041 0.661,-0.041 0.702,-0.042 0.702,-0.042 0.702,-0.083 0.702,-0.081 0.744,-0.125 0.661,-0.165 1.404,-0.331 0.702,-0.206 0.744,-0.248 0.661,-0.207 1.404,-0.578 0.702,-0.33 0.744,-0.289 0.661,-0.372 0.702,-0.33 1.405,-0.744 0.702,-0.412 0.743,-0.415 0.66,-0.413 0.703,-0.413 0.702,-0.454 0.703,-0.413 0.743,-0.454 0.661,-0.455 2.107,-1.363 0.743,-0.454 0.661,-0.454 0.702,-0.414 0.703,-0.454 0.701,-0.413 0.744,-0.372 0.703,-0.371 0.66,-0.372 0.703,-0.33 0.701,-0.289 0.703,-0.331 0.743,-0.248 0.661,-0.207 0.702,-0.205 0.703,-0.166 0.702,-0.124 0.743,-0.082 0.661,-0.083 h 1.404 l 0.703,0.083 0.743,0.082 0.702,0.124 0.661,0.166 1.405,0.412 0.743,0.248 0.703,0.331 0.66,0.289 0.702,0.33 1.405,0.743 0.743,0.372 0.661,0.413 0.703,0.454 0.702,0.414 0.701,0.454 0.745,0.454 0.702,0.455 0.66,0.454 1.404,0.909 0.744,0.454 0.703,0.454 0.66,0.413 1.405,0.826 0.743,0.415 0.702,0.412 0.661,0.372 0.702,0.372 1.404,0.661 0.744,0.33 0.702,0.33 0.661,0.289 0.702,0.289 0.703,0.207 0.743,0.248 0.702,0.206 0.662,0.166 1.404,0.33 0.743,0.125 0.702,0.081 0.661,0.083 0.702,0.042 0.703,0.042 0.743,0.041 0.703,-0.041 0.702,-0.042 0.661,-0.042 0.701,-0.083 0.703,-0.081 0.744,-0.125 0.701,-0.165 0.662,-0.165 0.702,-0.166 0.702,-0.206 0.743,-0.248 0.702,-0.207 0.661,-0.289 0.702,-0.289 0.703,-0.33 0.743,-0.289 0.702,-0.372 0.703,-0.33 0.661,-0.372 0.702,-0.372 0.702,-0.412 0.743,-0.415 0.703,-0.413 0.661,-0.413 0.702,-0.454 0.703,-0.413 0.742,-0.454 0.703,-0.455 0.661,-0.454 1.404,-0.909 0.743,-0.454 0.703,-0.454 0.702,-0.414 0.661,-0.454 0.702,-0.413 0.744,-0.372 1.404,-0.743 0.661,-0.33 0.702,-0.289 0.702,-0.331 0.744,-0.248 0.702,-0.207 0.66,-0.205 0.703,-0.166 0.702,-0.124 0.743,-0.082 0.703,-0.083 h 0.702"
           style="fill:none;stroke:#231f20;stroke-width:0.543;stroke-linecap:square;stroke-linejoin:miter;stroke-miterlimit:10;stroke-dasharray:none;stroke-opacity:1"
           id="path1418" />
      </g>
    </g>
    <g
       id="g1420">
      <g
         id="g1422"
         clip-path="url(#clipPath1426)">
        <path
           d="m 116.914,587.047 h 0.703 l 0.702,0.042 1.405,0.165 1.404,0.33 0.702,0.207 0.743,0.206 0.661,0.248 0.702,0.247 0.703,0.331 0.702,0.29 1.404,0.66 2.107,1.114 0.702,0.415 0.702,0.372 0.703,0.413 0.702,0.371 1.404,0.826 0.743,0.372 0.662,0.413 0.702,0.371 0.701,0.414 0.703,0.371 1.405,0.702 0.702,0.372 1.404,0.661 2.107,0.868 2.107,0.743 0.743,0.207 0.66,0.165 0.703,0.206 1.405,0.248 0.743,0.124 0.661,0.083 0.702,0.082 1.405,0.083 h 1.404 l 1.404,-0.083 0.702,-0.082 0.702,-0.083 0.744,-0.124 0.661,-0.124 0.702,-0.124 0.702,-0.206 0.702,-0.165 0.744,-0.207 0.661,-0.248 1.404,-0.495 0.702,-0.289 0.744,-0.289 0.661,-0.29 2.107,-0.991 0.702,-0.373 0.743,-0.371 0.66,-0.371 0.703,-0.414 0.702,-0.371 0.703,-0.413 0.743,-0.372 0.661,-0.412 0.702,-0.414 0.702,-0.371 0.703,-0.413 0.743,-0.372 0.661,-0.415 2.106,-1.114 0.744,-0.33 0.703,-0.33 0.66,-0.29 0.703,-0.331 1.404,-0.495 0.743,-0.206 0.661,-0.207 1.405,-0.33 0.702,-0.083 0.743,-0.082 0.661,-0.042 h 1.404 l 0.703,0.042 0.743,0.082 0.702,0.083 0.661,0.165 0.702,0.165 0.703,0.207 0.743,0.206 0.703,0.248 0.66,0.247 0.702,0.331 0.703,0.29 0.702,0.33 0.743,0.33 0.661,0.372 1.405,0.742 0.701,0.415 0.745,0.372 0.702,0.413 0.66,0.371 1.404,0.826 0.744,0.372 0.703,0.413 0.66,0.371 0.702,0.414 0.703,0.371 0.743,0.371 0.702,0.331 0.661,0.372 1.404,0.661 0.702,0.29 0.744,0.289 0.702,0.289 0.661,0.248 1.405,0.495 0.743,0.207 0.702,0.165 0.662,0.206 1.404,0.248 0.743,0.124 0.702,0.083 0.661,0.082 1.405,0.083 h 1.446 l 0.702,-0.042 0.661,-0.041 0.701,-0.082 0.703,-0.083 0.744,-0.124 0.701,-0.124 0.662,-0.124 0.702,-0.206 0.702,-0.165 0.743,-0.207 0.702,-0.248 0.661,-0.247 0.702,-0.248 0.703,-0.289 0.743,-0.289 0.702,-0.29 0.703,-0.33 0.661,-0.331 0.702,-0.372 0.702,-0.331 0.743,-0.371 0.703,-0.371 0.661,-0.414 0.702,-0.371 0.703,-0.413 0.742,-0.372 0.703,-0.412 0.661,-0.414 0.702,-0.371 0.702,-0.413 0.743,-0.372 0.703,-0.415 0.702,-0.371 0.661,-0.371 0.702,-0.372 0.744,-0.33 0.702,-0.33 0.702,-0.29 0.661,-0.331 1.404,-0.495 0.744,-0.206 0.702,-0.207 0.66,-0.165 0.703,-0.165 0.702,-0.083 0.743,-0.082 0.703,-0.042 h 0.702"
           style="fill:none;stroke:#231f20;stroke-width:0.543;stroke-linecap:square;stroke-linejoin:miter;stroke-miterlimit:10;stroke-dasharray:none;stroke-opacity:1"
           id="path1428" />
      </g>
    </g>
    <g
       id="g1430">
      <g
         id="g1432"
         clip-path="url(#clipPath1436)">
        <path
           d="m 116.914,592.004 0.703,0.041 0.702,0.042 0.702,0.082 0.703,0.082 1.404,0.249 0.702,0.165 0.743,0.207 0.661,0.247 0.702,0.207 0.703,0.248 0.702,0.288 0.703,0.248 3.51,1.652 0.702,0.373 1.405,0.661 1.404,0.743 1.405,0.702 0.702,0.372 1.404,0.66 0.744,0.331 0.661,0.33 0.702,0.33 2.106,0.869 2.809,0.991 0.703,0.165 0.743,0.248 0.66,0.124 0.703,0.206 0.702,0.083 0.703,0.124 0.743,0.124 0.661,0.081 0.702,0.084 0.702,0.04 h 2.809 l 0.702,-0.04 0.702,-0.084 0.702,-0.081 0.744,-0.124 0.661,-0.124 0.702,-0.083 0.702,-0.206 0.702,-0.124 0.744,-0.248 0.661,-0.165 2.106,-0.744 0.744,-0.247 0.661,-0.291 1.404,-0.578 1.405,-0.66 0.743,-0.331 0.66,-0.33 0.703,-0.33 0.702,-0.372 0.703,-0.33 0.743,-0.372 0.661,-0.372 0.702,-0.371 1.405,-0.661 1.404,-0.703 2.106,-0.992 0.744,-0.33 0.703,-0.248 0.66,-0.288 0.703,-0.248 0.701,-0.207 0.703,-0.247 0.743,-0.207 0.661,-0.124 0.702,-0.166 0.703,-0.124 0.702,-0.082 0.743,-0.082 0.661,-0.042 0.702,-0.041 0.702,0.041 0.703,0.042 0.743,0.082 0.702,0.082 0.661,0.124 0.702,0.125 0.703,0.165 0.743,0.207 0.703,0.247 0.66,0.207 0.702,0.248 0.703,0.288 0.702,0.248 0.743,0.33 0.661,0.331 2.106,0.991 0.745,0.373 0.702,0.33 0.66,0.331 1.404,0.743 0.744,0.372 0.703,0.33 0.66,0.372 1.405,0.66 0.743,0.331 0.702,0.33 0.661,0.33 2.106,0.869 0.744,0.247 0.702,0.248 0.661,0.248 0.702,0.248 0.703,0.165 0.743,0.248 0.702,0.124 0.662,0.206 0.702,0.083 0.702,0.124 0.743,0.124 0.702,0.081 0.661,0.084 0.702,0.04 h 2.851 l 0.661,-0.04 0.701,-0.084 0.703,-0.081 0.744,-0.124 0.701,-0.124 0.662,-0.083 0.702,-0.206 0.702,-0.124 0.743,-0.248 0.702,-0.165 0.661,-0.248 1.405,-0.496 0.743,-0.247 1.405,-0.579 0.661,-0.29 1.404,-0.66 0.743,-0.331 0.703,-0.33 0.661,-0.33 0.702,-0.372 0.703,-0.33 0.742,-0.372 0.703,-0.372 0.661,-0.371 1.404,-0.661 0.743,-0.373 1.405,-0.661 0.661,-0.33 0.702,-0.331 0.744,-0.33 0.702,-0.248 0.702,-0.288 0.661,-0.248 0.702,-0.207 0.702,-0.247 0.744,-0.207 0.702,-0.165 0.66,-0.125 0.703,-0.124 0.702,-0.082 0.743,-0.082 0.703,-0.042 0.702,-0.041"
           style="fill:none;stroke:#231f20;stroke-width:0.543;stroke-linecap:square;stroke-linejoin:miter;stroke-miterlimit:10;stroke-dasharray:none;stroke-opacity:1"
           id="path1438" />
      </g>
    </g>
    <g
       id="g1440">
      <g
         id="g1442"
         clip-path="url(#clipPath1446)">
        <path
           d="m 116.914,596.796 2.107,0.124 0.703,0.123 0.702,0.083 1.404,0.247 0.743,0.207 0.661,0.166 0.702,0.206 2.809,0.991 2.107,0.867 0.702,0.331 0.702,0.289 1.405,0.661 0.702,0.289 0.702,0.372 0.743,0.33 0.662,0.289 0.702,0.331 0.701,0.289 0.703,0.33 0.744,0.289 0.661,0.29 1.404,0.577 2.107,0.744 0.702,0.206 0.702,0.248 1.405,0.415 0.743,0.123 0.66,0.207 0.703,0.124 0.702,0.123 0.703,0.124 0.743,0.083 0.661,0.083 0.702,0.041 0.702,0.041 0.703,0.042 0.743,0.041 0.661,-0.041 0.702,-0.042 0.702,-0.041 0.702,-0.041 0.702,-0.083 0.744,-0.083 0.661,-0.124 0.702,-0.123 0.702,-0.124 0.702,-0.207 0.744,-0.123 0.661,-0.207 0.701,-0.208 0.703,-0.248 0.702,-0.206 0.744,-0.248 0.661,-0.247 0.702,-0.249 2.107,-0.867 0.743,-0.289 0.66,-0.33 0.703,-0.289 0.702,-0.331 0.703,-0.289 0.743,-0.33 0.661,-0.372 0.702,-0.289 1.405,-0.661 0.743,-0.289 0.661,-0.331 2.106,-0.867 0.744,-0.249 0.703,-0.247 0.66,-0.248 0.703,-0.247 0.701,-0.206 0.703,-0.166 0.743,-0.207 0.661,-0.123 0.702,-0.124 0.703,-0.083 0.702,-0.123 0.743,-0.042 0.661,-0.042 0.702,-0.04 1.405,0.082 0.743,0.042 0.702,0.123 0.661,0.083 1.405,0.247 0.743,0.207 0.703,0.166 0.66,0.206 2.107,0.742 0.743,0.249 0.661,0.289 1.405,0.578 0.701,0.331 0.745,0.289 0.702,0.33 0.66,0.331 0.702,0.289 0.702,0.372 0.744,0.33 0.703,0.289 0.66,0.331 0.702,0.289 0.703,0.33 0.743,0.289 0.702,0.29 0.661,0.289 0.702,0.288 1.404,0.496 0.744,0.248 0.702,0.206 0.661,0.248 1.405,0.415 0.743,0.123 0.702,0.207 0.662,0.124 0.702,0.123 0.702,0.124 0.743,0.083 0.702,0.083 0.661,0.041 0.702,0.041 0.703,0.042 0.743,0.041 0.703,-0.041 0.702,-0.042 0.661,-0.041 0.701,-0.041 0.703,-0.083 0.744,-0.083 0.701,-0.124 0.662,-0.123 0.702,-0.124 0.702,-0.207 0.743,-0.123 0.702,-0.207 0.661,-0.208 0.702,-0.248 0.703,-0.206 0.743,-0.248 1.405,-0.496 0.661,-0.288 1.404,-0.579 0.743,-0.289 0.703,-0.33 0.661,-0.289 0.702,-0.331 0.703,-0.289 0.742,-0.33 0.703,-0.372 0.661,-0.289 1.404,-0.661 0.743,-0.289 0.703,-0.331 0.702,-0.289 0.661,-0.289 0.702,-0.289 0.744,-0.249 1.404,-0.495 0.661,-0.247 0.702,-0.206 0.702,-0.166 0.744,-0.207 0.702,-0.123 0.66,-0.124 0.703,-0.083 0.702,-0.123 0.743,-0.042 0.703,-0.042 h 0.702"
           style="fill:none;stroke:#231f20;stroke-width:0.543;stroke-linecap:square;stroke-linejoin:miter;stroke-miterlimit:10;stroke-dasharray:none;stroke-opacity:1"
           id="path1448" />
      </g>
    </g>
    <g
       id="g1450">
      <g
         id="g1452"
         clip-path="url(#clipPath1456)">
        <path
           d="m 116.914,601.463 h 0.703 l 0.702,0.042 0.702,0.04 0.703,0.083 0.702,0.124 0.702,0.083 0.702,0.124 0.743,0.165 0.661,0.165 0.702,0.207 0.703,0.165 0.702,0.206 2.809,0.991 1.404,0.578 0.702,0.248 2.107,0.868 0.702,0.331 0.743,0.247 0.662,0.331 0.702,0.248 1.404,0.578 0.744,0.289 0.661,0.248 0.702,0.289 0.702,0.248 0.702,0.206 0.702,0.248 1.405,0.413 0.702,0.247 1.405,0.331 0.743,0.166 0.66,0.164 1.405,0.248 0.703,0.083 0.743,0.082 0.661,0.084 1.404,0.081 0.703,0.042 h 1.404 l 0.702,-0.042 1.404,-0.081 0.702,-0.084 0.744,-0.082 0.661,-0.083 1.404,-0.248 0.702,-0.164 0.744,-0.166 0.661,-0.165 0.701,-0.166 0.703,-0.247 0.702,-0.206 0.744,-0.207 0.661,-0.248 0.702,-0.206 0.702,-0.248 0.703,-0.289 0.702,-0.248 0.743,-0.289 0.66,-0.289 0.703,-0.289 0.702,-0.248 0.703,-0.331 0.743,-0.247 0.661,-0.331 2.107,-0.868 0.743,-0.248 0.661,-0.289 0.702,-0.289 1.404,-0.495 0.744,-0.248 0.703,-0.248 0.66,-0.206 0.703,-0.165 0.701,-0.207 0.703,-0.165 0.743,-0.165 0.661,-0.124 0.702,-0.083 0.703,-0.124 0.702,-0.083 0.743,-0.04 0.661,-0.042 h 1.404 l 0.703,0.042 0.743,0.04 0.702,0.083 0.661,0.124 0.702,0.083 0.703,0.124 0.743,0.165 0.703,0.165 0.66,0.207 0.702,0.165 0.703,0.206 0.702,0.248 0.743,0.248 0.661,0.247 0.703,0.248 1.403,0.578 0.745,0.248 0.702,0.289 0.66,0.29 0.702,0.289 0.702,0.331 0.744,0.247 0.703,0.331 0.66,0.248 1.405,0.578 0.743,0.289 0.702,0.248 0.661,0.289 0.702,0.248 0.702,0.206 0.702,0.248 0.744,0.207 0.702,0.206 0.661,0.247 1.405,0.331 0.743,0.166 0.702,0.164 0.662,0.124 0.702,0.124 0.702,0.083 0.743,0.082 0.702,0.084 0.661,0.041 0.702,0.04 0.703,0.042 h 1.446 l 0.702,-0.042 0.661,-0.04 0.701,-0.041 0.703,-0.084 0.744,-0.082 0.701,-0.083 0.662,-0.124 0.702,-0.124 0.702,-0.164 0.743,-0.166 0.702,-0.165 0.661,-0.166 0.702,-0.247 0.703,-0.206 0.743,-0.207 0.702,-0.248 0.703,-0.206 0.661,-0.248 0.702,-0.289 0.702,-0.248 0.743,-0.289 0.703,-0.289 0.661,-0.289 0.702,-0.248 0.703,-0.331 0.742,-0.247 0.703,-0.331 0.661,-0.289 1.404,-0.579 0.743,-0.248 1.405,-0.578 0.661,-0.248 0.702,-0.247 0.744,-0.248 0.702,-0.248 0.702,-0.206 0.661,-0.165 0.702,-0.207 0.702,-0.165 0.744,-0.165 0.702,-0.124 0.66,-0.083 0.703,-0.124 0.702,-0.083 0.743,-0.04 0.703,-0.042 h 0.702"
           style="fill:none;stroke:#231f20;stroke-width:0.543;stroke-linecap:square;stroke-linejoin:miter;stroke-miterlimit:10;stroke-dasharray:none;stroke-opacity:1"
           id="path1458" />
      </g>
    </g>
    <path
       d="m 119.021,603.982 h 20.983 v -26.518 h -20.983 z"
       style="fill:#ffffff;fill-opacity:1;fill-rule:nonzero;stroke:none"
       id="path1460" />
    <text
       xml:space="preserve"
       transform="matrix(1,0,0,-1,121.2934,594.1931)"
       style="font-variant:normal;font-weight:normal;font-size:7.613px;font-family:Symbol;-inkscape-font-specification:Symbol;writing-mode:lr-tb;fill:#231f20;fill-opacity:1;fill-rule:nonzero;stroke:none"
       id="text1464"><tspan
         x="0"
         y="0"
         id="tspan1462">β</tspan></text>
    <text
       xml:space="preserve"
       transform="matrix(1,0,0,-1,125.5063,590.9294)"
       style="font-variant:normal;font-weight:normal;font-size:4.9984px;font-family:Helvetica;-inkscape-font-specification:Helvetica;writing-mode:lr-tb;fill:#231f20;fill-opacity:1;fill-rule:nonzero;stroke:none"
       id="text1468"><tspan
         x="0"
         y="0"
         id="tspan1466">c</tspan></text>
    <text
       xml:space="preserve"
       transform="matrix(1,0,0,-1,127.9848,594.1931)"
       style="font-variant:normal;font-weight:normal;font-size:8.3491px;font-family:Helvetica;-inkscape-font-specification:Helvetica;writing-mode:lr-tb;fill:#231f20;fill-opacity:1;fill-rule:nonzero;stroke:none"
       id="text1472"><tspan
         x="0 4.9176197"
         y="0"
         sodipodi:role="line"
         id="tspan1470">=0</tspan></text>
    <text
       xml:space="preserve"
       transform="matrix(1,0,0,-1,121.2934,583.0408)"
       style="font-variant:normal;font-weight:normal;font-size:7.613px;font-family:Symbol;-inkscape-font-specification:Symbol;writing-mode:lr-tb;fill:#231f20;fill-opacity:1;fill-rule:nonzero;stroke:none"
       id="text1476"><tspan
         x="0"
         y="0"
         id="tspan1474">β</tspan></text>
    <text
       xml:space="preserve"
       transform="matrix(1,0,0,-1,125.5063,579.7772)"
       style="font-variant:normal;font-weight:normal;font-size:4.9984px;font-family:Helvetica;-inkscape-font-specification:Helvetica;writing-mode:lr-tb;fill:#231f20;fill-opacity:1;fill-rule:nonzero;stroke:none"
       id="text1480"><tspan
         x="0"
         y="0"
         id="tspan1478">L</tspan></text>
    <text
       xml:space="preserve"
       transform="matrix(1,0,0,-1,128.2737,583.0408)"
       style="font-variant:normal;font-weight:normal;font-size:8.3491px;font-family:Helvetica;-inkscape-font-specification:Helvetica;writing-mode:lr-tb;fill:#231f20;fill-opacity:1;fill-rule:nonzero;stroke:none"
       id="text1484"><tspan
         x="0 4.9176197"
         y="0"
         sodipodi:role="line"
         id="tspan1482">=1</tspan></text>
    <path
       d="m 242.36,605.263 h 4.543 v -6.238 h -4.543 z"
       style="fill:#ffffff;fill-opacity:1;fill-rule:nonzero;stroke:none"
       id="path1486" />
    <text
       xml:space="preserve"
       transform="matrix(1,0,0,-1,242.3602,600.2644)"
       style="font-variant:normal;font-weight:normal;font-size:5.5658px;font-family:Helvetica;-inkscape-font-specification:Helvetica;writing-mode:lr-tb;fill:#231f20;fill-opacity:1;fill-rule:nonzero;stroke:none"
       id="text1490"><tspan
         x="0 1.2411734"
         y="0"
         sodipodi:role="line"
         id="tspan1488">i=</tspan></text>
    <path
       d="m 235.462,511.912 h 7.807 v -6.237 h -7.807 z"
       style="fill:#ffffff;fill-opacity:1;fill-rule:nonzero;stroke:none"
       id="path1492" />
    <text
       xml:space="preserve"
       transform="matrix(1,0,0,-1,235.4622,506.9142)"
       style="font-variant:normal;font-weight:normal;font-size:5.5658px;font-family:Helvetica;-inkscape-font-specification:Helvetica;writing-mode:lr-tb;fill:#231f20;fill-opacity:1;fill-rule:nonzero;stroke:none"
       id="text1496"><tspan
         x="0 3.1057165 4.6641402"
         y="0"
         sodipodi:role="line"
         id="tspan1494">1.5</tspan></text>
    <path
       d="m 240.626,520.338 h 7.806 v -6.237 h -7.806 z"
       style="fill:#ffffff;fill-opacity:1;fill-rule:nonzero;stroke:none"
       id="path1498" />
    <text
       xml:space="preserve"
       transform="matrix(1,0,0,-1,240.6252,515.3401)"
       style="font-variant:normal;font-weight:normal;font-size:5.5658px;font-family:Helvetica;-inkscape-font-specification:Helvetica;writing-mode:lr-tb;fill:#231f20;fill-opacity:1;fill-rule:nonzero;stroke:none"
       id="text1502"><tspan
         x="0 3.1391113 4.6697063"
         y="0"
         sodipodi:role="line"
         id="tspan1500">1.7</tspan></text>
    <path
       d="m 248.514,534.465 h 7.807 v -6.237 h -7.807 z"
       style="fill:#ffffff;fill-opacity:1;fill-rule:nonzero;stroke:none"
       id="path1504" />
    <text
       xml:space="preserve"
       transform="matrix(1,0,0,-1,248.5141,529.4669)"
       style="font-variant:normal;font-weight:normal;font-size:5.5658px;font-family:Helvetica;-inkscape-font-specification:Helvetica;writing-mode:lr-tb;fill:#231f20;fill-opacity:1;fill-rule:nonzero;stroke:none"
       id="text1508"><tspan
         x="0 3.1391113 4.6697063"
         y="0"
         sodipodi:role="line"
         id="tspan1506">1.9</tspan></text>
    <path
       d="m 248.638,559.867 h 7.807 v -6.237 h -7.807 z"
       style="fill:#ffffff;fill-opacity:1;fill-rule:nonzero;stroke:none"
       id="path1510" />
    <text
       xml:space="preserve"
       transform="matrix(1,0,0,-1,248.6381,554.8701)"
       style="font-variant:normal;font-weight:normal;font-size:5.5658px;font-family:Helvetica;-inkscape-font-specification:Helvetica;writing-mode:lr-tb;fill:#231f20;fill-opacity:1;fill-rule:nonzero;stroke:none"
       id="text1514"><tspan
         x="0 3.1057165 4.6641402"
         y="0"
         sodipodi:role="line"
         id="tspan1512">2.1</tspan></text>
    <path
       d="m 248.68,573.788 h 7.807 v -6.237 h -7.807 z"
       style="fill:#ffffff;fill-opacity:1;fill-rule:nonzero;stroke:none"
       id="path1516" />
    <text
       xml:space="preserve"
       transform="matrix(1,0,0,-1,248.6801,568.7899)"
       style="font-variant:normal;font-weight:normal;font-size:5.5658px;font-family:Helvetica;-inkscape-font-specification:Helvetica;writing-mode:lr-tb;fill:#231f20;fill-opacity:1;fill-rule:nonzero;stroke:none"
       id="text1520"><tspan
         x="0 3.1391113 4.6641402"
         y="0"
         sodipodi:role="line"
         id="tspan1518">2.3</tspan></text>
    <path
       d="m 248.762,584.651 h 7.807 v -6.237 h -7.807 z"
       style="fill:#ffffff;fill-opacity:1;fill-rule:nonzero;stroke:none"
       id="path1522" />
    <text
       xml:space="preserve"
       transform="matrix(1,0,0,-1,248.7621,579.6532)"
       style="font-variant:normal;font-weight:normal;font-size:5.5658px;font-family:Helvetica;-inkscape-font-specification:Helvetica;writing-mode:lr-tb;fill:#231f20;fill-opacity:1;fill-rule:nonzero;stroke:none"
       id="text1526"><tspan
         x="0 3.0890191 4.6307454"
         y="0"
         sodipodi:role="line"
         id="tspan1524">2.5</tspan></text>
    <path
       d="m 248.638,595.886 h 7.807 v -6.238 h -7.807 z"
       style="fill:#ffffff;fill-opacity:1;fill-rule:nonzero;stroke:none"
       id="path1528" />
    <text
       xml:space="preserve"
       transform="matrix(1,0,0,-1,248.6381,590.8884)"
       style="font-variant:normal;font-weight:normal;font-size:5.5658px;font-family:Helvetica;-inkscape-font-specification:Helvetica;writing-mode:lr-tb;fill:#231f20;fill-opacity:1;fill-rule:nonzero;stroke:none"
       id="text1532"><tspan
         x="0 3.1057165 4.6641402"
         y="0"
         sodipodi:role="line"
         id="tspan1530">2.7</tspan></text>
    <path
       d="m 248.267,604.932 h 7.806 v -6.238 h -7.806 z"
       style="fill:#ffffff;fill-opacity:1;fill-rule:nonzero;stroke:none"
       id="path1534" />
    <text
       xml:space="preserve"
       transform="matrix(1,0,0,-1,248.2671,599.9343)"
       style="font-variant:normal;font-weight:normal;font-size:5.5658px;font-family:Helvetica;-inkscape-font-specification:Helvetica;writing-mode:lr-tb;fill:#231f20;fill-opacity:1;fill-rule:nonzero;stroke:none"
       id="text1538"><tspan
         x="0 3.1057165 4.6641402"
         y="0"
         sodipodi:role="line"
         id="tspan1536">2.9</tspan></text>
    <text
       xml:space="preserve"
       transform="matrix(0,1,0.9999486,0,109.686,585.3534)"
       style="font-variant:normal;font-weight:normal;font-size:9.7276px;font-family:Helvetica;-inkscape-font-specification:Helvetica;writing-mode:lr-tb;fill:#231f20;fill-opacity:1;fill-rule:nonzero;stroke:none"
       id="text1542"><tspan
         x="0 6.4785814 9.1731272"
         y="0"
         sodipodi:role="line"
         id="tspan1540">V/I</tspan></text>
    <text
       xml:space="preserve"
       transform="matrix(0,1,0.99993146,0,113.4862,597.1667)"
       style="font-variant:normal;font-weight:normal;font-size:5.8362px;font-family:Helvetica;-inkscape-font-specification:'Helvetica, Normal';writing-mode:lr-tb;fill:#231f20;fill-opacity:1;fill-rule:nonzero;stroke:none;font-style:normal;font-stretch:normal;font-variant-ligatures:normal;font-variant-caps:normal;font-variant-numeric:normal;font-variant-east-asian:normal"
       id="text1546"><tspan
         sodipodi:role="line"
         id="tspan4446">c</tspan></text>
    <text
       xml:space="preserve"
       transform="matrix(0,1,0.9999486,0,109.686,600.3884)"
       style="font-variant:normal;font-weight:normal;font-size:9.7276px;font-family:Helvetica;-inkscape-font-specification:Helvetica;writing-mode:lr-tb;fill:#231f20;fill-opacity:1;fill-rule:nonzero;stroke:none"
       id="text1550"><tspan
         x="0"
         y="0"
         id="tspan1548">R</tspan></text>
    <text
       xml:space="preserve"
       transform="scale(1,-1)"
       style="font-variant:normal;font-weight:normal;font-size:8.8702px;font-family:Symbol;-inkscape-font-specification:Symbol;writing-mode:lr-tb;fill:#231f20;fill-opacity:1;fill-rule:nonzero;stroke:none"
       id="text1554"
       x="237.17393"
       y="-484.60831"><tspan
         x="237.17393"
         y="-484.60831"
         id="tspan1552">Φ</tspan></text>
    <text
       xml:space="preserve"
       transform="matrix(1,0,0,-1,245.1281,484.6083)"
       style="font-variant:normal;font-weight:normal;font-size:9.7271px;font-family:Helvetica;-inkscape-font-specification:Helvetica;writing-mode:lr-tb;fill:#231f20;fill-opacity:1;fill-rule:nonzero;stroke:none"
       id="text1562"><tspan
         x="0"
         y="0"
         id="tspan1560">/</tspan></text>
    <text
       xml:space="preserve"
       transform="matrix(1,0,0,-1,247.8131,484.6083)"
       style="font-variant:normal;font-weight:normal;font-size:8.8702px;font-family:Symbol;-inkscape-font-specification:Symbol;writing-mode:lr-tb;fill:#231f20;fill-opacity:1;fill-rule:nonzero;stroke:none"
       id="text1566"><tspan
         x="0"
         y="0"
         id="tspan1564">Φ</tspan></text>
    <text
       xml:space="preserve"
       transform="matrix(1,0,0,-1,254.5871,480.8093)"
       style="font-variant:normal;font-weight:normal;font-size:5.8358px;font-family:Helvetica;-inkscape-font-specification:Helvetica;writing-mode:lr-tb;fill:#231f20;fill-opacity:1;fill-rule:nonzero;stroke:none"
       id="text1570"><tspan
         x="0"
         y="0"
         id="tspan1568">0</tspan></text>
  </g>
</svg>
